<?xml version="1.0" encoding="utf-8"?>
<!-- Generator: Adobe Illustrator 26.5.0, SVG Export Plug-In . SVG Version: 6.00 Build 0)  -->
<svg version="1.1" id="Layer_1" xmlns="http://www.w3.org/2000/svg" xmlns:xlink="http://www.w3.org/1999/xlink" x="0px" y="0px"
	 viewBox="0 0 146 40" style="enable-background:new 0 0 146 40;" xml:space="preserve">
<style type="text/css">
	.st0{fill-rule:evenodd;clip-rule:evenodd;fill:#E02044;}
	.st1{fill-rule:evenodd;clip-rule:evenodd;fill:#FFFFFE;}
</style>
<g id="Logos">
	<g id="TT-Logos-_x26_-Icons" transform="translate(-84.000000, -396.000000)">
		<g id="Trafalgar_x2F_Brand-Elements_x2F_Logo_x2F_Standard" transform="translate(84.000000, 396.000000)">
			<g id="Trafalgar-Logo">
				<polygon id="Fill-1" class="st0" points="0,40 145.6,40 145.6,0.3 0,0.3 				"/>
				<path id="Fill-3" class="st1" d="M37.7,26.4l-3.5-5.2c0.7-0.3,2.3-1.3,2.3-3.7c0-1.1-0.4-2-1.1-2.8c-0.7-0.8-1.7-1.2-2.7-1.2H28
					c-0.1,0-0.2,0.1-0.2,0.2v12.8c0,0.1,0.1,0.2,0.2,0.2h2.4c0.1,0,0.2-0.1,0.2-0.2v-5h0.8l3,5.1c0,0.1,0.1,0.1,0.2,0.1h2.9
					c0.1,0,0.2,0,0.2-0.1C37.7,26.6,37.7,26.5,37.7,26.4 M33.7,17.5c0,0.7-0.5,1.4-1.4,1.4h-1.6c0,0-0.1,0-0.1-0.1v-2.6
					c0,0,0-0.1,0.1-0.1h1.6C33.1,16.1,33.7,16.8,33.7,17.5L33.7,17.5"/>
				<path id="Fill-4" class="st1" d="M132.3,26.4l-3.5-5.2c0.7-0.3,2.3-1.3,2.3-3.7c0-1.1-0.4-2-1.1-2.8c-0.7-0.8-1.7-1.2-2.7-1.2
					h-4.6c-0.1,0-0.2,0.1-0.2,0.2v12.8c0,0.1,0.1,0.2,0.2,0.2h2.4c0.1,0,0.2-0.1,0.2-0.2v-5h0.8l3,5.1c0,0.1,0.1,0.1,0.2,0.1h2.9
					c0.1,0,0.2,0,0.2-0.1C132.3,26.6,132.3,26.5,132.3,26.4 M128.3,17.5c0,0.7-0.5,1.4-1.4,1.4h-1.6c0,0-0.1,0-0.1-0.1v-2.6
					c0,0,0-0.1,0.1-0.1h1.6C127.7,16.1,128.3,16.8,128.3,17.5L128.3,17.5"/>
				<path id="Fill-5" class="st1" d="M23.4,13.7V16c0,0.1-0.1,0.2-0.2,0.2h-3.5v10.3c0,0.1-0.1,0.2-0.2,0.2h-2.3
					c-0.1,0-0.2-0.1-0.2-0.2V16.2h-3.5c-0.1,0-0.2-0.1-0.2-0.2v-2.3c0-0.1,0.1-0.2,0.2-0.2h9.7C23.3,13.5,23.4,13.6,23.4,13.7"/>
				<path id="Fill-6" class="st1" d="M62.1,20.9h-4.3v5.6c0,0.1-0.1,0.2-0.2,0.2h-2.3c-0.1,0-0.2-0.1-0.2-0.2V13.7
					c0-0.1,0.1-0.2,0.2-0.2h7c0.1,0,0.2,0.1,0.2,0.2V16c0,0.1-0.1,0.2-0.2,0.2h-4.5v2h4.3c0.1,0,0.2,0.1,0.2,0.2v2.3
					C62.3,20.8,62.2,20.9,62.1,20.9"/>
				<path id="Fill-7" class="st1" d="M88.6,24.3v2.3c0,0.1-0.1,0.2-0.2,0.2h-7.3c-0.1,0-0.2-0.1-0.2-0.2V13.7c0-0.1,0.1-0.2,0.2-0.2
					h2.3c0.1,0,0.2,0.1,0.2,0.2v10.3h4.8C88.5,24.1,88.6,24.2,88.6,24.3"/>
				<path id="Fill-8" class="st1" d="M104.2,19.6v0.9c0,3.7-2.6,6.5-6.2,6.5c-3.5,0-6.5-3.1-6.5-6.9c0-3.8,3-6.9,6.7-6.9
					c3.6,0,5.5,2.9,5.5,2.9c0.1,0.1,0.1,0.2,0,0.3l-1.7,1.6c0,0-0.1,0.1-0.2,0.1c-0.1,0-0.1,0-0.1-0.1l-0.3-0.4
					c-0.7-1-2-1.7-3.1-1.7c-2.2,0-4,1.8-4,4.2c0,2.2,1.8,4.2,3.9,4.2c1.2,0,2.6-0.9,3-2.2h-2.7c-0.1,0-0.2-0.1-0.2-0.2v-2.3
					c0-0.1,0.1-0.2,0.2-0.2h5.5C104.1,19.4,104.2,19.5,104.2,19.6"/>
				<path id="Fill-9" class="st1" d="M51.6,26.4l-5.4-12.8c0-0.1-0.1-0.1-0.2-0.1h-0.8c-0.1,0-0.2,0.1-0.2,0.1l-5.4,12.8
					c0,0.1,0,0.1,0,0.2c0,0.1,0.1,0.1,0.2,0.1h2.4c0.1,0,0.2,0,0.2-0.1l1.2-2.6h4.1l1.2,2.6c0,0.1,0.1,0.1,0.2,0.1h2.4
					c0.1,0,0.1,0,0.2-0.1C51.6,26.6,51.6,26.5,51.6,26.4 M44.2,21.6l1.4-3.4l1.3,3.4H44.2"/>
				<path id="Fill-10" class="st1" d="M77.1,26.4l-5.4-12.8c0-0.1-0.1-0.1-0.2-0.1h-0.8c-0.1,0-0.2,0.1-0.2,0.1l-5.4,12.8
					c0,0.1,0,0.1,0,0.2c0,0.1,0.1,0.1,0.2,0.1h2.4c0.1,0,0.2,0,0.2-0.1L69,24h4.1l1.2,2.6c0,0.1,0.1,0.1,0.2,0.1h2.4
					c0.1,0,0.1,0,0.2-0.1C77.1,26.6,77.1,26.5,77.1,26.4 M69.7,21.6l1.4-3.4l1.3,3.4H69.7"/>
				<path id="Fill-11" class="st1" d="M118.8,26.4l-5.4-12.8c0-0.1-0.1-0.1-0.2-0.1h-0.8c-0.1,0-0.2,0.1-0.2,0.1l-5.4,12.8
					c0,0.1,0,0.1,0,0.2c0,0.1,0.1,0.1,0.2,0.1h2.4c0.1,0,0.2,0,0.2-0.1l1.2-2.6h4.1l1.2,2.6c0,0.1,0.1,0.1,0.2,0.1h2.4
					c0.1,0,0.1,0,0.2-0.1C118.8,26.6,118.8,26.5,118.8,26.4 M111.4,21.6l1.4-3.4l1.3,3.4H111.4"/>
			</g>
		</g>
	</g>
</g>
</svg>
